<svg width="110" height="110" xmlns="http://www.w3.org/2000/svg">

 <g>
  <title>background</title>
  <rect fill="none" id="canvas_background" height="402" width="582" y="-1" x="-1"/>
 </g>
 <g>
  <title>Layer 1</title>
  <circle id="svg_1" fill="#032b3a" r="55" cy="55" cx="55"/>
  <path id="svg_3" fill="#3E3E3F" d="m79,35c0,-2.209 -1.791,-4 -4,-4l-40,0c-2.209,0 -4,1.791 -4,4l0,28l48,0l0,-28z"/>
  <path id="svg_4" fill="#5B5C5F" d="m31,35l0,28l11.062,0l32,-32l-39.062,0c-2.209,0 -4,1.791 -4,4z"/>
  <path id="svg_5" fill="#FFFFFF" d="m84.172,85.828c-0.751,0.751 -1.768,1.172 -2.829,1.172l-52.686,0c-1.061,0 -2.078,-0.421 -2.828,-1.172l-2.829,-2.828l64,0l-2.828,2.828z"/>
  <polygon id="svg_6" fill="#F0F1F1" points="79,63 31,63 23,83 87,83   "/>
  <path id="svg_7" fill="#CFD3D4" d="m61.447,76.894c-0.246,-0.492 -0.897,-0.894 -1.447,-0.894l-10,0c-0.55,0 -1.201,0.402 -1.447,0.894l-1.106,2.211c-0.246,0.493 0.003,0.895 0.553,0.895l14,0c0.55,0 0.799,-0.402 0.553,-0.894l-1.106,-2.212z"/>
  <path id="svg_8" fill="#CFD3D4" d="m75,72c0,0.55 -0.45,1 -1,1l-37,0c-0.55,0 -1,-0.45 -1,-1l0,0c0,-0.55 0.45,-1 1,-1l37,0c0.55,0 1,0.45 1,1l0,0z"/>
  <path id="svg_9" fill="#CFD3D4" d="m73.227,68c0,0.55 -0.45,1 -1,1l-33.454,0c-0.55,0 -1,-0.45 -1,-1l0,0c0,-0.55 0.45,-1 1,-1l33.455,0c0.549,0 0.999,0.45 0.999,1l0,0z"/>
  <path id="svg_11" fill="#FFFFFF" d="m64,43l-16.626,0l-1.455,-3.394c-0.158,-0.368 -0.519,-0.606 -0.919,-0.606l-3,0c-0.552,0 -1,0.448 -1,1s0.448,1 1,1l1.681,0c0.4,0 0.761,0.238 0.919,0.606l5.48,12.788c0.159,0.368 0.52,0.606 0.92,0.606l8,0c0.552,0 1,-0.448 1,-1s-0.448,-1 -1,-1l-6.681,0c-0.4,0 -0.761,-0.238 -0.919,-0.606l-0.598,-1.394l9.198,0c0.55,0 1.201,-0.402 1.447,-0.895l3.105,-6.211c0.247,-0.492 -0.002,-0.894 -0.552,-0.894z"/>
  <circle id="svg_12" fill="#FFFFFF" r="1.5" cy="57.5" cx="57.5"/>
  <circle id="svg_13" fill="#FFFFFF" r="1.5" cy="57.5" cx="51.875"/>
  <polygon id="svg_14" fill="#FFFFFF" points="42.062,63 31,63 23.625,81.438   "/>
 </g>
</svg>